<svg xmlns="http://www.w3.org/2000/svg" xmlns:xlink="http://www.w3.org/1999/xlink" width="256" zoomAndPan="magnify" viewBox="0 0 192 191.999996" height="256" preserveAspectRatio="xMidYMid meet" version="1.0"><defs><clipPath id="7f507f309b"><path d="M 29 99 L 145 99 L 145 192 L 29 192 Z M 29 99 " clip-rule="nonzero"/></clipPath><clipPath id="494b16eeb9"><path d="M 60.109375 76.679688 L 167.550781 139.582031 L 136.859375 192.007812 L 29.417969 129.109375 Z M 60.109375 76.679688 " clip-rule="nonzero"/></clipPath><clipPath id="363af1d8d7"><path d="M 29.324219 129.269531 L 136.765625 192.167969 L 167.457031 139.742188 L 60.015625 76.84375 Z M 29.324219 129.269531 " clip-rule="nonzero"/></clipPath><clipPath id="5abbb2646d"><path d="M 29.324219 129.269531 L 136.765625 192.167969 L 167.457031 139.742188 L 60.015625 76.84375 Z M 29.324219 129.269531 " clip-rule="nonzero"/></clipPath><clipPath id="6f8b2ecc98"><path d="M 47 0 L 164 0 L 164 92 L 47 92 Z M 47 0 " clip-rule="nonzero"/></clipPath><clipPath id="05d8087dcf"><path d="M 55.089844 0 L 163.0625 61.984375 L 132.816406 114.671875 L 24.84375 52.683594 Z M 55.089844 0 " clip-rule="nonzero"/></clipPath><clipPath id="6ee9780bad"><path d="M 55.089844 0 L 163.0625 61.984375 L 132.816406 114.671875 L 24.84375 52.683594 Z M 55.089844 0 " clip-rule="nonzero"/></clipPath><clipPath id="e9f0fdaf35"><path d="M 55.089844 0 L 163.0625 61.984375 L 132.816406 114.671875 L 24.84375 52.683594 Z M 55.089844 0 " clip-rule="nonzero"/></clipPath></defs><g clip-path="url(#7f507f309b)"><g clip-path="url(#494b16eeb9)"><g clip-path="url(#363af1d8d7)"><g clip-path="url(#5abbb2646d)"><path fill="#000000" d="M 136.746094 192.15625 C 153.234375 162.824219 143.078125 125.496094 113.71875 108.308594 C 84.394531 91.140625 46.871094 100.558594 29.367188 129.296875 Z M 136.746094 192.15625 " fill-opacity="1" fill-rule="nonzero"/></g></g></g></g><g clip-path="url(#6f8b2ecc98)"><g clip-path="url(#05d8087dcf)"><g clip-path="url(#6ee9780bad)"><g clip-path="url(#e9f0fdaf35)"><path fill="#000000" d="M 163.039062 61.972656 C 145.78125 90.859375 108.339844 100.59375 78.835938 83.65625 C 49.367188 66.738281 38.890625 29.496094 55.132812 0.0234375 Z M 163.039062 61.972656 " fill-opacity="1" fill-rule="nonzero"/></g></g></g></g></svg>